<?xml version="1.0" encoding="UTF-8" standalone="no"?>
<!-- Generator: Adobe Illustrator 15.0.0, SVG Export Plug-In . SVG Version: 6.00 Build 0)  -->

<svg
   xmlns:dc="http://purl.org/dc/elements/1.1/"
   xmlns:cc="http://creativecommons.org/ns#"
   xmlns:rdf="http://www.w3.org/1999/02/22-rdf-syntax-ns#"
   xmlns:svg="http://www.w3.org/2000/svg"
   xmlns="http://www.w3.org/2000/svg"
   xmlns:sodipodi="http://sodipodi.sourceforge.net/DTD/sodipodi-0.dtd"
   xmlns:inkscape="http://www.inkscape.org/namespaces/inkscape"
   version="1.1"
   id="Layer_1"
   x="0px"
   y="0px"
   width="677.25281"
   height="329.31268"
   viewBox="0 0 677.25282 329.31269"
   enable-background="new 0 0 850.391 566.93"
   xml:space="preserve"
   inkscape:version="0.48.4 r9939"
   sodipodi:docname="kypo_logo_3-2ratio_NEGATIVE_bw.svg"
   inkscape:export-filename="/home/cegan/Downloads/kypo_logo_3-2ratio_NEGATIVE_bw.png"
   inkscape:export-xdpi="90"
   inkscape:export-ydpi="90"><metadata
     id="metadata80"><rdf:RDF><cc:Work
         rdf:about=""><dc:format>image/svg+xml</dc:format><dc:type
           rdf:resource="http://purl.org/dc/dcmitype/StillImage" /><dc:title></dc:title></cc:Work></rdf:RDF></metadata><defs
     id="defs78" /><sodipodi:namedview
     pagecolor="#ffffff"
     bordercolor="#666666"
     borderopacity="1"
     objecttolerance="10"
     gridtolerance="10"
     guidetolerance="10"
     inkscape:pageopacity="0"
     inkscape:pageshadow="2"
     inkscape:window-width="1920"
     inkscape:window-height="1153"
     id="namedview76"
     showgrid="false"
     fit-margin-left="40"
     fit-margin-right="40"
     fit-margin-top="40"
     fit-margin-bottom="40"
     inkscape:zoom="1.4700643"
     inkscape:cx="157.0414"
     inkscape:cy="195.22526"
     inkscape:window-x="0"
     inkscape:window-y="25"
     inkscape:window-maximized="1"
     inkscape:current-layer="g3" /><g
     id="g3"
     transform="translate(-50.033192,-88.851309)"><g
       id="g5"><g
         id="g7"><path
           d="m 406.007,217.589 h 9.88 v 36.906 h 0.34 c 2.045,-2.953 4.089,-5.678 6.02,-8.176 l 23.394,-28.729 h 12.265 l -27.708,32.477 29.865,44.06 h -11.697 l -25.096,-37.587 -7.381,8.403 v 29.184 h -9.88 l -0.002,-76.538 0,0 z"
           id="path9"
           inkscape:connector-curvature="0"
           style="fill:#ffffff" /><path
           d="m 495.151,294.126 v -32.477 l -24.303,-44.06 h 11.355 l 10.787,21.122 c 2.839,5.791 5.225,10.447 7.608,15.784 h 0.228 c 2.044,-4.997 4.77,-9.993 7.723,-15.784 l 11.016,-21.122 h 11.129 l -25.551,43.946 v 32.59 l -9.992,10e-4 0,0 z"
           id="path11"
           inkscape:connector-curvature="0"
           style="fill:#ffffff" /><path
           d="m 550.113,218.498 c 4.771,-0.795 11.017,-1.476 18.964,-1.476 9.768,0 16.92,2.271 21.463,6.359 4.089,3.634 6.699,9.198 6.699,16.011 0,6.927 -2.044,12.377 -5.905,16.352 -5.337,5.564 -13.739,8.403 -23.392,8.403 -2.953,0 -5.68,-0.114 -7.949,-0.682 v 30.66 h -9.88 v -75.627 l 0,0 z m 9.878,36.905 c 2.157,0.568 4.884,0.795 8.177,0.795 11.924,0 19.19,-5.905 19.19,-16.238 0,-10.22 -7.268,-15.103 -18.057,-15.103 -4.314,0 -7.607,0.341 -9.313,0.795 l 0.003,29.751 0,0 z"
           id="path13"
           inkscape:connector-curvature="0"
           style="fill:#ffffff" /><path
           d="m 687.286,255.063 c 0,26.231 -16.011,40.313 -35.543,40.313 -20.325,0 -34.406,-15.784 -34.406,-38.95 0,-24.301 14.988,-40.199 35.431,-40.199 21.008,0 34.518,16.011 34.518,38.836 z m -59.503,1.135 c 0,16.466 8.857,31.114 24.528,31.114 15.671,0 24.527,-14.422 24.527,-31.795 0,-15.33 -7.949,-31.228 -24.415,-31.228 -16.466,0 -24.64,15.216 -24.64,31.909 z"
           id="path15"
           inkscape:connector-curvature="0"
           style="fill:#ffffff" /></g></g><g
       id="g41"><g
         id="XMLID_1_"><g
           id="g44"><path
             d="m 280.696,324.387 c -0.041,0 -0.082,0 -0.124,-0.004 l -60.501,-4.616 c -0.896,-0.063 -1.563,-0.846 -1.495,-1.736 0.069,-0.896 0.823,-1.563 1.741,-1.496 l 60.502,4.616 c 0.896,0.063 1.563,0.846 1.492,1.737 -0.064,0.853 -0.777,1.499 -1.615,1.499 z"
             id="path46"
             inkscape:connector-curvature="0"
             style="fill:#ffffff" /></g><g
           id="g48"><path
             d="m 280.696,324.387 c -0.141,0 -0.28,-0.016 -0.422,-0.054 -0.575,-0.156 -1.021,-0.615 -1.16,-1.194 L 233.678,130.848 c -0.175,-0.735 0.182,-1.489 0.854,-1.825 0.672,-0.333 1.491,-0.165 1.975,0.418 l 105.922,128.124 c 0.522,0.63 0.491,1.549 -0.069,2.145 l -60.484,64.169 c -0.313,0.327 -0.741,0.508 -1.18,0.508 z M 238.434,136.861 281.58,319.46 339.018,258.527 238.434,136.861 z"
             id="path50"
             inkscape:connector-curvature="0"
             style="fill:#ffffff" /></g><g
           id="g52"><path
             d="m 172.83,378.164 c -0.412,0 -0.82,-0.151 -1.139,-0.461 L 90.52,298.148 c -0.642,-0.629 -0.649,-1.652 -0.021,-2.293 0.628,-0.646 1.652,-0.649 2.294,-0.023 l 81.173,79.555 c 0.641,0.626 0.648,1.653 0.021,2.293 -0.317,0.323 -0.739,0.484 -1.157,0.484 z"
             id="path54"
             inkscape:connector-curvature="0"
             style="fill:#ffffff" /></g><g
           id="g56"><path
             d="m 97.283,200.173 c -0.601,0 -1.178,-0.33 -1.458,-0.903 -0.396,-0.805 -0.067,-1.777 0.737,-2.173 L 234.54,129.019 c 0.806,-0.396 1.777,-0.067 2.171,0.738 0.397,0.801 0.065,1.774 -0.734,2.17 L 97.998,200.008 c -0.23,0.112 -0.474,0.165 -0.715,0.165 z"
             id="path58"
             inkscape:connector-curvature="0"
             style="fill:#ffffff" /></g><g
           id="g60"><path
             d="m 91.658,298.611 c -0.031,0 -0.063,0 -0.093,0 -0.896,-0.055 -1.581,-0.82 -1.526,-1.715 l 5.621,-98.438 c 0.051,-0.893 0.878,-1.583 1.711,-1.527 0.896,0.051 1.581,0.817 1.526,1.714 l -5.621,98.438 c -0.049,0.864 -0.762,1.528 -1.618,1.528 z"
             id="path62"
             inkscape:connector-curvature="0"
             style="fill:#ffffff" /></g><g
           id="g64"><path
             d="m 172.83,378.164 c -0.075,0 -0.15,-0.002 -0.229,-0.016 -0.563,-0.079 -1.043,-0.445 -1.269,-0.975 L 95.784,199.183 c -0.353,-0.824 0.034,-1.774 0.857,-2.126 0.827,-0.349 1.776,0.035 2.129,0.858 l 74.493,175.51 45.664,-56.301 c 0.563,-0.692 1.584,-0.801 2.28,-0.237 0.696,0.564 0.807,1.588 0.237,2.282 l -47.36,58.396 c -0.305,0.385 -0.767,0.599 -1.254,0.599 z"
             id="path66"
             inkscape:connector-curvature="0"
             style="fill:#ffffff" /></g><g
           id="g68"><path
             d="m 220.194,319.772 c -0.415,0 -0.823,-0.157 -1.131,-0.46 L 96.149,199.712 c -0.522,-0.51 -0.645,-1.308 -0.285,-1.949 0.354,-0.64 1.094,-0.963 1.807,-0.789 l 243.898,60.046 c 0.661,0.162 1.152,0.722 1.227,1.399 0.073,0.679 -0.284,1.328 -0.896,1.629 l -120.985,59.554 c -0.233,0.115 -0.477,0.17 -0.721,0.17 z M 102.695,201.555 220.506,316.189 336.473,259.106 102.695,201.555 z"
             id="path70"
             inkscape:connector-curvature="0"
             style="fill:#ffffff" /></g><g
           id="g72"><path
             d="m 220.194,319.772 c -0.088,0 -0.178,-0.012 -0.264,-0.021 L 91.395,298.592 c -0.579,-0.096 -1.062,-0.498 -1.265,-1.049 -0.198,-0.553 -0.086,-1.169 0.298,-1.611 l 143.6,-166.517 c 0.459,-0.532 1.207,-0.707 1.854,-0.438 0.646,0.27 1.047,0.926 0.992,1.625 L 221.809,318.28 c -0.034,0.447 -0.26,0.866 -0.617,1.146 -0.286,0.226 -0.642,0.346 -0.998,0.346 z M 94.776,295.857 218.716,316.261 233.239,135.293 94.776,295.857 z"
             id="path74"
             inkscape:connector-curvature="0"
             style="fill:#ffffff" /></g></g></g></g></svg>