<?xml version="1.0" encoding="UTF-8"?>
<!DOCTYPE svg PUBLIC "-//W3C//DTD SVG 1.1//EN" "http://www.w3.org/Graphics/SVG/1.1/DTD/svg11.dtd">
<svg xmlns="http://www.w3.org/2000/svg" version="1.1" width="800px" height="800px" style="shape-rendering:geometricPrecision; text-rendering:geometricPrecision; image-rendering:optimizeQuality; fill-rule:evenodd; clip-rule:evenodd" xmlns:xlink="http://www.w3.org/1999/xlink">
<g><path style="opacity:0.954" fill="#fafafa" d="M 364.5,153.5 C 389.502,153.333 414.502,153.5 439.5,154C 440.308,154.308 440.975,154.808 441.5,155.5C 442.656,179.457 442.823,203.457 442,227.5C 438.943,228.529 438.943,229.862 442,231.5C 442.667,255.167 442.667,278.833 442,302.5C 438.943,304.138 438.943,305.471 442,306.5C 442.667,310.5 443.333,310.5 444,306.5C 444.75,305.874 445.584,305.374 446.5,305C 472.254,304.019 497.921,304.352 523.5,306C 524.191,307.067 524.691,308.234 525,309.5C 525.667,331.5 525.667,353.5 525,375.5C 524.691,376.766 524.191,377.933 523.5,379C 537.038,379.026 550.038,376.359 562.5,371C 556.176,356.711 553.176,341.711 553.5,326C 553.541,296.209 562.541,269.543 580.5,246C 585.618,245.112 590.618,245.445 595.5,247C 617.88,259.718 634.38,277.885 645,301.5C 647.29,307.661 648.79,313.995 649.5,320.5C 666.205,320.109 682.872,320.609 699.5,322C 714.547,323.786 727.714,329.619 739,339.5C 740.4,350.643 738.067,360.976 732,370.5C 716.006,395.761 693.173,410.928 663.5,416C 654.531,417.051 645.531,417.718 636.5,418C 621.606,457.639 601.44,494.139 576,527.5C 534.009,578.931 480.843,613.431 416.5,631C 351.386,646.942 285.719,649.609 219.5,639C 192.866,634.9 167.866,626.234 144.5,613C 112.57,591.032 90.4029,561.532 78,524.5C 62.4441,481.291 57.1108,436.958 62,391.5C 65.0431,386.123 69.5431,382.623 75.5,381C 90.1667,380.667 104.833,380.333 119.5,380C 118.584,379.626 117.75,379.126 117,378.5C 116.173,354.261 116.339,330.094 117.5,306C 143.079,304.352 168.746,304.019 194.5,305C 195.931,305.465 197.097,306.299 198,307.5C 198.5,306.333 199.333,305.5 200.5,305C 199.667,304.167 198.833,303.333 198,302.5C 197.333,278.833 197.333,255.167 198,231.5C 198.5,231 199,230.5 199.5,230C 225.167,229.333 250.833,229.333 276.5,230C 278.5,233.333 280.5,233.333 282.5,230C 308.167,229.333 333.833,229.333 359.5,230C 360.761,233.018 362.095,232.852 363.5,229.5C 362.469,228.3 361.635,226.966 361,225.5C 360.333,202.833 360.333,180.167 361,157.5C 361.69,155.65 362.856,154.316 364.5,153.5 Z M 278.5,301.5 C 280.054,302.693 281.721,303.86 283.5,305C 281.714,305.785 280.214,306.951 279,308.5C 278.5,306.667 277.333,305.5 275.5,305C 277.426,304.578 278.426,303.411 278.5,301.5 Z M 360.5,302.5 C 365.386,303.857 365.553,305.523 361,307.5C 360.167,306.667 359.333,305.833 358.5,305C 359.381,304.292 360.047,303.458 360.5,302.5 Z M 442.5,375.5 C 443.058,377.593 444.391,379.093 446.5,380C 444.167,380.667 441.833,380.667 439.5,380C 441.863,379.411 442.863,377.911 442.5,375.5 Z M 278.5,376.5 C 283.662,380.309 282.662,381.476 275.5,380C 277.426,379.578 278.426,378.411 278.5,376.5 Z M 197.5,377.5 C 201.073,380.403 200.073,381.236 194.5,380C 195.942,379.623 196.942,378.79 197.5,377.5 Z M 360.5,377.5 C 365.636,380.237 364.97,381.071 358.5,380C 359.381,379.292 360.047,378.458 360.5,377.5 Z"/></g>
<g><path style="opacity:1" fill="#000000" d="M 430.5,168.5 C 430.817,184.578 430.484,200.578 429.5,216.5C 411.544,217.64 393.544,217.807 375.5,217C 374.299,216.097 373.465,214.931 373,213.5C 372.333,198.833 372.333,184.167 373,169.5C 373.5,167.667 374.667,166.5 376.5,166C 393.5,165.333 410.5,165.333 427.5,166C 428.691,166.698 429.691,167.531 430.5,168.5 Z"/></g>
<g><path style="opacity:1" fill="#bcbcbc" d="M 430.5,168.5 C 431.166,176.326 431.5,184.326 431.5,192.5C 431.498,200.862 430.831,208.862 429.5,216.5C 430.484,200.578 430.817,184.578 430.5,168.5 Z"/></g>
<g><path style="opacity:1" fill="#000000" d="M 266.5,243.5 C 267.483,258.755 267.817,274.089 267.5,289.5C 266.733,290.172 266.066,291.005 265.5,292C 247.5,292.667 229.5,292.667 211.5,292C 211,291.5 210.5,291 210,290.5C 209.333,274.833 209.333,259.167 210,243.5C 210.5,243 211,242.5 211.5,242C 229.167,241.333 246.833,241.333 264.5,242C 265.044,242.717 265.711,243.217 266.5,243.5 Z"/></g>
<g><path style="opacity:1" fill="#000000" d="M 349.5,244.5 C 349.667,259.837 349.5,275.17 349,290.5C 348.283,291.044 347.783,291.711 347.5,292.5C 329.09,292.82 310.757,292.486 292.5,291.5C 291.364,275.878 291.198,260.211 292,244.5C 292.308,243.692 292.808,243.025 293.5,242.5C 311.456,241.347 329.456,241.18 347.5,242C 348.066,242.995 348.733,243.828 349.5,244.5 Z"/></g>
<g><path style="opacity:1" fill="#000000" d="M 430.5,243.5 C 430.667,259.17 430.5,274.837 430,290.5C 429.283,291.044 428.783,291.711 428.5,292.5C 410.83,292.667 393.164,292.5 375.5,292C 374.299,291.097 373.465,289.931 373,288.5C 372.333,274.167 372.333,259.833 373,245.5C 373.465,244.069 374.299,242.903 375.5,242C 393.167,241.333 410.833,241.333 428.5,242C 429.044,242.717 429.711,243.217 430.5,243.5 Z"/></g>
<g><path style="opacity:1" fill="#bcbcbc" d="M 430.5,243.5 C 431.661,259.328 431.828,275.328 431,291.5C 430.329,292.252 429.496,292.586 428.5,292.5C 428.783,291.711 429.283,291.044 430,290.5C 430.5,274.837 430.667,259.17 430.5,243.5 Z"/></g>
<g><path style="opacity:1" fill="#bcbcbc" d="M 266.5,243.5 C 267.831,250.803 268.498,258.47 268.5,266.5C 268.5,274.341 268.166,282.007 267.5,289.5C 267.817,274.089 267.483,258.755 266.5,243.5 Z"/></g>
<g><path style="opacity:1" fill="#bcbcbc" d="M 349.5,244.5 C 350.661,259.995 350.828,275.661 350,291.5C 349.329,292.252 348.496,292.586 347.5,292.5C 347.783,291.711 348.283,291.044 349,290.5C 349.5,275.17 349.667,259.837 349.5,244.5 Z"/></g>
<g><path style="opacity:1" fill="#000000" d="M 638.5,332.5 C 640.571,333.809 643.071,334.475 646,334.5C 648.69,334.497 651.19,334.164 653.5,333.5C 675.938,330.443 697.271,333.943 717.5,344C 720.394,345.392 722.394,347.559 723.5,350.5C 720.595,357.314 716.929,363.648 712.5,369.5C 708.528,373.807 704.528,378.141 700.5,382.5C 678.114,399.236 652.78,407.069 624.5,406C 607.998,449.869 584.998,489.702 555.5,525.5C 546.194,535.14 536.861,544.807 527.5,554.5C 475.314,597.402 415.314,622.569 347.5,630C 295.67,636.531 244.67,632.531 194.5,618C 154.053,605.544 123.886,580.711 104,543.5C 81.1873,499.426 71.1873,452.76 74,403.5C 77.0431,398.123 81.5431,394.623 87.5,393C 236.833,392.667 386.167,392.333 535.5,392C 550.464,390.975 564.797,387.475 578.5,381.5C 579.662,376.869 579.828,372.202 579,367.5C 563.412,340.802 562.412,313.468 576,285.5C 579.491,277.175 583.991,269.509 589.5,262.5C 615.711,278.923 632.045,302.257 638.5,332.5 Z"/></g>
<g><path style="opacity:1" fill="#bcbcbc" d="M 292.5,291.5 C 310.757,292.486 329.09,292.82 347.5,292.5C 338.506,293.166 329.34,293.5 320,293.5C 310.475,293.498 301.308,292.832 292.5,291.5 Z"/></g>
<g><path style="opacity:1" fill="#000000" d="M 131.5,316.5 C 149.261,316.027 166.927,316.527 184.5,318C 185.126,318.75 185.626,319.584 186,320.5C 186.167,327.833 186.333,335.167 186.5,342.5C 186.636,350.599 186.136,358.599 185,366.5C 184.25,367.126 183.416,367.626 182.5,368C 174,368.167 165.5,368.333 157,368.5C 147.737,368.641 138.57,368.141 129.5,367C 128.342,350.907 128.176,334.741 129,318.5C 129.995,317.934 130.828,317.267 131.5,316.5 Z"/></g>
<g><path style="opacity:1" fill="#000000" d="M 212.5,316.5 C 230.261,316.027 247.927,316.527 265.5,318C 266.126,318.75 266.626,319.584 267,320.5C 267.167,327.833 267.333,335.167 267.5,342.5C 267.636,350.599 267.136,358.599 266,366.5C 265.25,367.126 264.416,367.626 263.5,368C 246.123,368.819 228.789,368.652 211.5,367.5C 210.808,366.975 210.308,366.308 210,365.5C 209.333,350.167 209.333,334.833 210,319.5C 210.698,318.309 211.531,317.309 212.5,316.5 Z"/></g>
<g><path style="opacity:1" fill="#000000" d="M 348.5,318.5 C 349.65,334.092 349.817,349.759 349,365.5C 347.955,366.373 347.122,367.373 346.5,368.5C 328.757,368.819 311.09,368.486 293.5,367.5C 293.217,366.711 292.717,366.044 292,365.5C 291.333,350.167 291.333,334.833 292,319.5C 292.5,319 293,318.5 293.5,318C 302.57,316.859 311.737,316.359 321,316.5C 329.5,316.667 338,316.833 346.5,317C 347.044,317.717 347.711,318.217 348.5,318.5 Z"/></g>
<g><path style="opacity:1" fill="#000000" d="M 429.5,317.5 C 430.833,334.167 430.833,350.833 429.5,367.5C 411.877,368.639 394.21,368.806 376.5,368C 374.667,367.5 373.5,366.333 373,364.5C 372.333,349.833 372.333,335.167 373,320.5C 373.5,318.667 374.667,317.5 376.5,317C 394.21,316.194 411.877,316.361 429.5,317.5 Z"/></g>
<g><path style="opacity:1" fill="#000000" d="M 458.5,316.5 C 476.261,316.027 493.927,316.527 511.5,318C 512.191,319.067 512.691,320.234 513,321.5C 513.167,328.5 513.333,335.5 513.5,342.5C 518.792,367.503 508.958,376.17 484,368.5C 474.737,368.641 465.57,368.141 456.5,367C 455.809,365.933 455.309,364.766 455,363.5C 454.333,349.5 454.333,335.5 455,321.5C 455.257,319.093 456.424,317.427 458.5,316.5 Z"/></g>
<g><path style="opacity:1" fill="#bcbcbc" d="M 429.5,317.5 C 430.831,325.472 431.498,333.806 431.5,342.5C 431.498,351.194 430.831,359.528 429.5,367.5C 430.833,350.833 430.833,334.167 429.5,317.5 Z"/></g>
<g><path style="opacity:1" fill="#bcbcbc" d="M 348.5,318.5 C 349.831,326.138 350.498,334.138 350.5,342.5C 350.333,350.5 350.167,358.5 350,366.5C 349.184,367.823 348.017,368.489 346.5,368.5C 347.122,367.373 347.955,366.373 349,365.5C 349.817,349.759 349.65,334.092 348.5,318.5 Z"/></g>
<g><path style="opacity:1" fill="#b5b5b5" d="M 638.5,332.5 C 643.405,333.445 648.405,333.779 653.5,333.5C 651.19,334.164 648.69,334.497 646,334.5C 643.071,334.475 640.571,333.809 638.5,332.5 Z"/></g>
<g><path style="opacity:1" fill="#bcbcbc" d="M 293.5,367.5 C 311.09,368.486 328.757,368.819 346.5,368.5C 337.84,369.166 329.006,369.5 320,369.5C 310.807,369.498 301.974,368.832 293.5,367.5 Z"/></g>
<g><path style="opacity:1" fill="#c2c2c2" d="M 712.5,369.5 C 712.649,370.552 712.483,371.552 712,372.5C 708.571,376.439 704.737,379.772 700.5,382.5C 704.528,378.141 708.528,373.807 712.5,369.5 Z"/></g>
<g><path style="opacity:1" fill="#c2c2c2" d="M 555.5,525.5 C 555.649,526.552 555.483,527.552 555,528.5C 546.246,537.758 537.079,546.425 527.5,554.5C 536.861,544.807 546.194,535.14 555.5,525.5 Z"/></g>
</svg>
