<?xml version="1.0" encoding="utf-8"?>
<!-- Generator: Adobe Illustrator 21.0.0, SVG Export Plug-In . SVG Version: 6.00 Build 0)  -->
<svg version="1.1" id="Layer_1" xmlns="http://www.w3.org/2000/svg" xmlns:xlink="http://www.w3.org/1999/xlink" x="0px" y="0px"
     width="70px" height="70px" viewBox="-6 -6 65 65" enable-background="new 0 0 65 65" xml:space="preserve">
<style type="text/css">
	.st0{fill:#FFFFFF;stroke:#000000;stroke-width:2;stroke-miterlimit:10;}
</style>
<g>
	<path class="st0" d="M45.7,50H6.6c-2.3,0-4.3-1.9-4.3-4.3V6.4c0-2.3,1.9-4.3,4.3-4.3h39.2c2.3,0,4.3,1.9,4.3,4.3v39.3
		C50,48.1,48.1,50,45.7,50z"/>
	<polygon points="7.1,21.1 15.9,27.2 16,22.1 26,22.3 26.1,20.4 16,20.3 16.1,15.2 	"/>
	<polygon points="6.8,38.5 15.6,44.6 15.6,39.6 25.7,39.7 25.7,37.8 15.7,37.7 15.7,32.6 	"/>
	<polygon points="44.9,13.6 35.9,7.7 36,12.8 25.9,12.9 26,14.8 36,14.6 36.1,19.7 	"/>
	<polygon points="45,30.2 36.1,24.4 36.2,29.4 26.1,29.6 26.1,31.4 36.2,31.3 36.3,36.4 	"/>
</g>
</svg>
